<svg viewBox="50 -13.2695 275 80.539" width="5000" height="1464.3454545454547" xmlns="http://www.w3.org/2000/svg" xmlns:xlink="http://www.w3.org/1999/xlink" preserveAspectRatio="none"><defs></defs><style>.aD6z1nYkhcolor {fill:#FFFFFF;fill-opacity:1;}.aD6z1nYkhstrokeColor-str {stroke:#D9D9D9;stroke-opacity:1;}.aIptOCySncolors-0 {fill:#FFFFFF;fill-opacity:1;}.aIptOCySncolors-1 {fill:#D9D9D9;fill-opacity:1;}.aIptOCySncolors-2 {fill:#B4B4B4;fill-opacity:1;}</style><g opacity="1" transform="rotate(0 50 -13.2695)">
<svg width="60.4043" height="80.539" x="50" y="-13.2695" version="1.1" preserveAspectRatio="none" viewBox="40 20 120 160">
  <g transform="matrix(1 0 0 1 0 0)" ><g><path d="M70 64.6l29.9 19.2L70 103V64.6z" data-color="1" class="aIptOCySncolors-0"></path><path d="M70 103L40.1 83.8 70 64.6V103z" data-color="2" class="aIptOCySncolors-1"></path><path d="M130 64.6l29.9 19.2L130 103V64.6z" data-color="1" class="aIptOCySncolors-0"></path><path d="M130 103l-29.9-19.2L130 64.6V103z" data-color="3" class="aIptOCySncolors-2"></path><path d="M100 83.9l29.9 19.2-29.9 19.1V83.9z" data-color="2" class="aIptOCySncolors-1"></path><path d="M100 122.2L70.1 103 100 83.9v38.3z" data-color="3" class="aIptOCySncolors-2"></path><path d="M70 141.5l-29.9-19.2L70 103.1v38.4z" data-color="2" class="aIptOCySncolors-1"></path><path d="M130 103.1l29.9 19.2-29.9 19.2v-38.4z" data-color="2" class="aIptOCySncolors-1"></path><path d="M100 122.4l29.9 19.2-29.9 19.1v-38.3z" data-color="2" class="aIptOCySncolors-1"></path><path d="M100 160.7l-29.9-19.2 29.9-19.2v38.4z" data-color="3" class="aIptOCySncolors-2"></path><path d="M70 141.6l29.9 19.2L70 180v-38.4z" data-color="1" class="aIptOCySncolors-0"></path><path d="M70 180l-29.9-19.2L70 141.6V180z" data-color="3" class="aIptOCySncolors-2"></path><path d="M130 141.6l29.9 19.2L130 180v-38.4z" data-color="2" class="aIptOCySncolors-1"></path><path d="M130 180l-29.9-19.2 29.9-19.2V180z" data-color="1" class="aIptOCySncolors-0"></path><path d="M40 83.9l29.9 19.2L40 122.2V83.9z" data-color="3" class="aIptOCySncolors-2"></path><path d="M40 122.4l29.9 19.2L40 160.7v-38.3z" data-color="1" class="aIptOCySncolors-0"></path><path d="M160 122.2L130.1 103 160 83.9v38.3z" data-color="3" class="aIptOCySncolors-2"></path><path d="M160 160.7l-29.9-19.2 29.9-19.2v38.4z" data-color="3" class="aIptOCySncolors-2"></path><path d="M95.3 38.6L125.6 20l4.4 35.2-34.7-16.6z" data-color="1" class="aIptOCySncolors-0"></path><path d="M130 55.2L99.7 73.7l-4.4-35.2L130 55.2z" data-color="3" class="aIptOCySncolors-2"></path></g></g>
</svg>
</g><g opacity="1" transform="rotate(0 121.1428 -5.2156)">
<svg width="203.8572" height="64.4312" x="121.1428" y="-5.2156" version="1.1" preserveAspectRatio="none" viewBox="1.76 -29.2 93.39999999999999 29.52">
  <g transform="matrix(1 0 0 1 0 0)" class="aD6z1nYkhcolor"><path id="id-D6z1nYkh7" d="M16.40-23.64Q16.40-23.44 16.26-23.30Q16.12-23.16 15.92-23.16L15.92-23.16L7.60-23.16Q7.40-23.16 7.40-22.96L7.40-22.96L7.40-16.64Q7.40-16.44 7.60-16.44L7.60-16.44L12.36-16.44Q12.56-16.44 12.70-16.30Q12.84-16.16 12.84-15.96L12.84-15.96L12.84-12.08Q12.84-11.88 12.70-11.74Q12.56-11.60 12.36-11.60L12.36-11.60L7.60-11.60Q7.40-11.60 7.40-11.40L7.40-11.40L7.40-0.48Q7.40-0.28 7.26-0.14Q7.12 0 6.92 0L6.92 0L2.24 0Q2.04 0 1.90-0.14Q1.76-0.28 1.76-0.48L1.76-0.48L1.76-27.52Q1.76-27.72 1.90-27.86Q2.04-28 2.24-28L2.24-28L15.92-28Q16.12-28 16.26-27.86Q16.40-27.72 16.40-27.52L16.40-27.52L16.40-23.64Z M26.88-20.08Q26.88-20.28 27.02-20.42Q27.16-20.56 27.36-20.56L27.36-20.56L32.04-20.56Q32.24-20.56 32.38-20.42Q32.52-20.28 32.52-20.08L32.52-20.08L32.52-0.48Q32.52-0.28 32.38-0.14Q32.24 0 32.04 0L32.04 0L27.36 0Q27.16 0 27.02-0.14Q26.88-0.28 26.88-0.48L26.88-0.48L26.88-1.16Q26.88-1.28 26.80-1.32Q26.72-1.36 26.64-1.24L26.64-1.24Q26.04-0.40 25.14-0.06Q24.24 0.28 23.04 0.28L23.04 0.28Q20.64 0.28 19.08-1.18Q17.52-2.64 17.52-5.68L17.52-5.68L17.52-20.08Q17.52-20.28 17.66-20.42Q17.80-20.56 18-20.56L18-20.56L22.68-20.56Q22.88-20.56 23.02-20.42Q23.16-20.28 23.16-20.08L23.16-20.08L23.16-6.92Q23.16-5.76 23.62-5.14Q24.08-4.52 24.96-4.52L24.96-4.52Q25.84-4.52 26.36-5.20Q26.88-5.88 26.88-7.04L26.88-7.04L26.88-20.08Z M42.44 0.28Q39.04 0.28 37.02-1.34Q35-2.96 35-5.68L35-5.68L35-5.96Q35-6.16 35.14-6.30Q35.28-6.44 35.48-6.44L35.48-6.44L39.88-6.44Q40.08-6.44 40.22-6.36Q40.36-6.28 40.36-6.16L40.36-6.16L40.36-5.84Q40.36-5 40.96-4.46Q41.56-3.92 42.44-3.92L42.44-3.92Q43.24-3.92 43.70-4.38Q44.16-4.84 44.16-5.56L44.16-5.56Q44.16-6.44 43.40-6.94Q42.64-7.44 41.70-7.78Q40.76-8.12 40.40-8.24L40.40-8.24Q38.20-9.04 36.70-10.46Q35.20-11.88 35.20-14.56L35.20-14.56Q35.20-17.48 37.12-19.16Q39.04-20.84 42.24-20.84L42.24-20.84Q45.56-20.84 47.50-19.08Q49.44-17.32 49.44-14.32L49.44-14.32Q49.44-14.12 49.30-13.98Q49.16-13.84 48.96-13.84L48.96-13.84L44.68-13.84Q44.48-13.84 44.34-13.96Q44.20-14.08 44.20-14.24L44.20-14.24L44.20-14.64Q44.20-15.44 43.70-15.94Q43.20-16.44 42.40-16.44L42.40-16.44Q41.56-16.44 41.08-15.90Q40.60-15.36 40.60-14.64L40.60-14.64Q40.60-13.68 41.42-13.14Q42.24-12.60 43.92-11.96L43.92-11.96Q45.64-11.32 46.86-10.66Q48.08-10 48.96-8.78Q49.84-7.56 49.84-5.72L49.84-5.72Q49.84-2.96 47.82-1.34Q45.80 0.28 42.44 0.28L42.44 0.28Z M55.08-22.52Q53.60-22.52 52.70-23.44Q51.80-24.36 51.80-25.84L51.80-25.84Q51.80-27.36 52.70-28.28Q53.60-29.20 55.08-29.20L55.08-29.20Q56.56-29.20 57.44-28.28Q58.32-27.36 58.32-25.84L58.32-25.84Q58.32-24.32 57.44-23.42Q56.56-22.52 55.08-22.52L55.08-22.52ZM52.72 0Q52.52 0 52.38-0.14Q52.24-0.28 52.24-0.48L52.24-0.48L52.24-20.08Q52.24-20.28 52.38-20.42Q52.52-20.56 52.72-20.56L52.72-20.56L57.40-20.56Q57.60-20.56 57.74-20.42Q57.88-20.28 57.88-20.08L57.88-20.08L57.88-0.48Q57.88-0.28 57.74-0.14Q57.60 0 57.40 0L57.40 0L52.72 0Z M68.44 0.32Q64.84 0.32 62.84-1.46Q60.84-3.24 60.84-6.40L60.84-6.40L60.84-14.16Q60.84-17.20 62.86-19.04Q64.88-20.88 68.44-20.88L68.44-20.88Q72-20.88 74.02-19.04Q76.04-17.20 76.04-14.16L76.04-14.16L76.04-6.40Q76.04-3.24 74.04-1.46Q72.04 0.32 68.44 0.32L68.44 0.32ZM68.44-4.52Q69.32-4.52 69.86-5.16Q70.40-5.80 70.40-6.84L70.40-6.84L70.40-13.76Q70.40-14.76 69.86-15.40Q69.32-16.04 68.44-16.04L68.44-16.04Q67.56-16.04 67.02-15.40Q66.48-14.76 66.48-13.76L66.48-13.76L66.48-6.84Q66.48-5.80 67.02-5.16Q67.56-4.52 68.44-4.52L68.44-4.52ZM66-23.28Q65.72-23.28 65.60-23.44Q65.48-23.60 65.64-23.84L65.64-23.84L68-27.88Q68.16-28.20 68.60-28.20L68.60-28.20L72.88-28.20Q73.28-28.20 73.28-27.92L73.28-27.92Q73.28-27.80 73.16-27.60L73.16-27.60L70.12-23.56Q69.88-23.28 69.52-23.28L69.52-23.28L66-23.28Z M88.40-20.88Q91.08-20.88 92.44-19.08Q93.80-17.28 93.80-14.04L93.80-14.04L93.80-0.48Q93.80-0.28 93.66-0.14Q93.52 0 93.32 0L93.32 0L88.64 0Q88.44 0 88.30-0.14Q88.16-0.28 88.16-0.48L88.16-0.48L88.16-13.60Q88.16-14.76 87.70-15.40Q87.24-16.04 86.36-16.04L86.36-16.04Q85.44-16.04 84.94-15.38Q84.44-14.72 84.44-13.52L84.44-13.52L84.44-0.48Q84.44-0.28 84.30-0.14Q84.16 0 83.96 0L83.96 0L79.28 0Q79.08 0 78.94-0.14Q78.80-0.28 78.80-0.48L78.80-0.48L78.80-20.08Q78.80-20.28 78.94-20.42Q79.08-20.56 79.28-20.56L79.28-20.56L83.96-20.56Q84.16-20.56 84.30-20.42Q84.44-20.28 84.44-20.08L84.44-20.08L84.44-19.28Q84.44-19.16 84.52-19.16L84.52-19.16Q84.60-19.16 84.80-19.36L84.80-19.36Q86.08-20.88 88.40-20.88L88.40-20.88Z"/></g>
</svg>
</g></svg>